<svg width="17" height="15" fill="none" xmlns="http://www.w3.org/2000/svg"><g clip-path="url(#a)"><g clip-path="url(#b)"><g clip-path="url(#c)"><path d="m8.58 12.71-.08.08-.1-.08C4.38 9.2 1.7 6.86 1.7 4.5c0-1.64 1.28-2.87 2.97-2.87 1.31 0 2.59.82 3.04 1.93h1.58a3.34 3.34 0 0 1 3.03-1.93c1.7 0 2.98 1.23 2.98 2.87 0 2.36-2.67 4.69-6.72 8.21ZM12.32 0A5.2 5.2 0 0 0 8.5 1.7 5.2 5.2 0 0 0 4.67 0 4.54 4.54 0 0 0 0 4.5c0 3.08 2.89 5.6 7.27 9.42L8.5 15l1.23-1.08C14.11 10.1 17 7.58 17 4.5 17 1.97 14.94 0 12.32 0Z" fill="#fff"/></g></g></g><defs><clipPath id="a"><path fill="#fff" d="M0 0h17v15H0z"/></clipPath><clipPath id="b"><path fill="#fff" d="M0 0h17v15H0z"/></clipPath><clipPath id="c"><path fill="#fff" d="M0 0h17v15H0z"/></clipPath></defs></svg>